PathFileType	4	(X/Y/Z)	C:\Users\Basilio\Documents\Thesis Gigler\squatting_fais\c3dfiles\038\SLS_back_pre2\markers_experimental.trc
DataRate	CameraRate	NumFrames	NumMarkers	Units	OrigDataRate	OrigDataStartFrame	OrigNumFrames
200.000000	200.000000	4	63	mm	200.000000	1567	1791
Frame#	Time	FHD			LBHD			RBHD			C7			T10			CLAV			LSHO			LUUPA			LMUPA			LDUPA			LLEP			LMEP			LRAD			LUL			LRFIN			RSHO			RUPA1			RMUPA			RDUPA			RLEP			RMEP			RRAD			RUL			RUFIN			LASI			RASI			USACR			LSACR			RSACR			LTHI1			LTHI2			LTHI3			LTHI4			LLFC			LMFC			LTIB1			LTIB2			LTIB3			LTIB4			LLMAL			LMMAL			LHEE			LMT1			LMT2			LMT5			RTHI			RTHI2			RTHI3			RTHI4			RLFC			RMFC			RTIB1			RTIB2			RTIB3			RTIB4			RLMAL			RMMAL			RHEE			RMT1			RMT2			RMT5			*61			*62			
		X1	Y1	Z1	X2	Y2	Z2	X3	Y3	Z3	X4	Y4	Z4	X5	Y5	Z5	X6	Y6	Z6	X7	Y7	Z7	X8	Y8	Z8	X9	Y9	Z9	X10	Y10	Z10	X11	Y11	Z11	X12	Y12	Z12	X13	Y13	Z13	X14	Y14	Z14	X15	Y15	Z15	X16	Y16	Z16	X17	Y17	Z17	X18	Y18	Z18	X19	Y19	Z19	X20	Y20	Z20	X21	Y21	Z21	X22	Y22	Z22	X23	Y23	Z23	X24	Y24	Z24	X25	Y25	Z25	X26	Y26	Z26	X27	Y27	Z27	X28	Y28	Z28	X29	Y29	Z29	X30	Y30	Z30	X31	Y31	Z31	X32	Y32	Z32	X33	Y33	Z33	X34	Y34	Z34	X35	Y35	Z35	X36	Y36	Z36	X37	Y37	Z37	X38	Y38	Z38	X39	Y39	Z39	X40	Y40	Z40	X41	Y41	Z41	X42	Y42	Z42	X43	Y43	Z43	X44	Y44	Z44	X45	Y45	Z45	X46	Y46	Z46	X47	Y47	Z47	X48	Y48	Z48	X49	Y49	Z49	X50	Y50	Z50	X51	Y51	Z51	X52	Y52	Z52	X53	Y53	Z53	X54	Y54	Z54	X55	Y55	Z55	X56	Y56	Z56	X57	Y57	Z57	X58	Y58	Z58	X59	Y59	Z59	X60	Y60	Z60	X61	Y61	Z61	X62	Y62	Z62	X63	Y63	Z63	

1568	7.835	-92.0186004638672	1764.06201171875	-1037.690307617188	-248.5410156250001	1728.043212890625	-1106.637451171875	-248.5333709716797	1711.397827148438	-962.4615478515627	-315.5971374511719	1553.675659179688	-1034.8974609375	-333.1496887207032	1268.406982421875	-1013.042846679688	-176.040023803711	1514.209716796875	-1049.48876953125	-251.2272033691407	1547.750244140625	-1218.019653320313	-336.3017272949219	1318.475952148438	-1294.684814453125	-291.6804199218751	1295.746704101563	-1292.137329101563	-329.0036010742188	1249.834106445313	-1301.743530273438	-323.7420043945313	1191.90380859375	-1302.196533203125	-368.5534362792969	1177.988891601563	-1240.920166015625	-258.5125427246094	907.409851074219	-1245.467407226563	-309.9660644531251	902.4238281250002	-1297.12744140625	-224.7697448730469	838.5151367187502	-1271.579711914063	-222.5247192382813	1539.727294921875	-873.935729980469	-269.5381469726563	1345.563842773438	-753.2407836914064	-233.8570404052735	1312.570068359375	-759.6427001953126	-274.6617736816407	1280.518920898438	-729.4531250000001	-273.3741149902344	1209.29833984375	-708.0377807617189	-319.9378967285157	1183.990356445313	-767.2851562500001	-186.5652008056641	938.3083496093752	-718.9519042968751	-227.6452178955079	934.849548339844	-659.2634887695314	-152.1756286621094	867.9506835937502	-679.7358398437501	-181.4380493164063	1057.576416015625	-1112.963623046875	-184.9008941650391	1093.818481445313	-865.3334960937502	-348.6075439453126	1134.500854492188	-994.296325683594	-365.5536499023438	1104.497802734375	-1019.406494140625	-362.5255432128907	1109.728149414063	-962.4561767578127	-240.1647491455079	740.7304077148439	-1141.22119140625	-215.4324951171876	660.0001831054689	-1127.495849609375	-170.4013671875	663.9262695312501	-1103.621948242188	-247.4430389404297	614.6932373046876	-1106.880126953125	-247.0329589843751	552.8243408203126	-1095.947387695313	-242.9231719970704	549.2859497070314	-975.1492309570315	-241.5762634277344	365.4766235351563	-1014.208068847656	-286.7698364257813	325.5570983886719	-1077.910766601563	-252.3433685302735	317.0711669921876	-1048.106811523438	-277.9745178222657	244.1177978515626	-1015.845397949219	-377.8300170898438	123.3081588745117	-1032.544799804688	-342.2721862792969	135.7754211425782	-961.388610839844	-432.471405029297	102.7970962524414	-980.387390136719	-234.0036621093751	44.88685607910157	-974.0631103515627	-225.5537109375001	45.20841979980469	-1024.496704101563	-270.4050292968751	36.48556900024415	-1070.947387695313	-227.8971862792969	821.757995605469	-789.704040527344	-191.4869842529297	765.3872680664064	-784.5382080078127	-158.1904602050782	767.1970825195314	-791.508483886719	-221.0994110107422	685.2882080078126	-796.8726806640627	-213.0141601562501	552.5949707031251	-802.2202758789065	-218.6084747314454	547.9855346679689	-920.038513183594	-207.7638397216797	371.9950561523438	-821.8518066406252	-300.3352355957032	313.1448364257813	-781.224548339844	-255.4665985107422	304.7695007324219	-792.4312744140627	-257.1423950195313	251.8996734619141	-819.6646118164065	-345.3658142089844	146.427963256836	-782.950866699219	-317.5740966796876	149.8229064941407	-863.9014892578127	-412.8781127929689	110.1826477050782	-844.8984985351565	-202.2069702148438	68.93970489501955	-842.894714355469	-200.8459167480469	69.8682327270508	-795.9979248046877	-244.5091094970704	55.0229949951172	-752.4720458984376	nan	nan	nan	nan	nan	nan	
1569	7.84	-91.5498504638672	1763.937133789063	-1037.297973632813	-248.2179718017579	1728.024780273438	-1106.27197265625	-248.1123504638672	1711.321411132813	-962.005065917969	-315.2805480957032	1553.713623046875	-1034.220947265625	-332.6665039062501	1268.111572265625	-1012.648559570313	-175.6512298583985	1514.171630859375	-1049.103881835938	-251.0968475341797	1547.830200195313	-1217.572875976563	-337.2467041015626	1319.099609375	-1294.4931640625	-292.2744140625001	1296.392333984375	-1291.9501953125	-330.1865844726563	1250.410278320313	-1301.650634765625	-325.3177795410157	1192.431640625	-1302.260009765625	-369.9648132324219	1178.52978515625	-1241.079711914063	-261.6651000976563	907.3974609375002	-1245.442138671875	-312.5529479980469	902.8584594726565	-1297.475708007813	-228.4396362304688	838.1862792968752	-1270.644775390625	-221.9685211181641	1539.744140625	-873.2808227539065	-270.5857543945313	1345.312133789063	-753.4682617187501	-235.1123352050782	1312.2626953125	-759.9132080078126	-276.2743225097657	1280.146362304688	-729.9677124023439	-275.7007751464844	1208.888916015625	-708.8541870117189	-321.7182006835938	1184.073974609375	-768.6223144531252	-190.3154907226563	937.3955688476565	-719.4229736328126	-232.1237182617188	933.938659667969	-660.2432250976564	-156.7194366455078	866.4131469726565	-680.3057861328126	-181.2913970947266	1057.601196289063	-1112.8447265625	-184.3213195800782	1093.712890625	-865.2591552734377	-348.1481323242188	1134.92333984375	-993.9880371093752	-364.0917053222657	1104.45458984375	-1018.709411621094	-362.0842285156251	1109.6123046875	-962.0745849609377	-240.1329650878907	740.7407226562501	-1141.184448242188	-215.3624877929688	659.9979858398439	-1127.551879882813	-170.2590484619141	663.8819580078126	-1103.668579101563	-247.3722229003907	614.7196044921876	-1106.800048828125	-247.0172119140626	552.8712768554689	-1095.977905273438	-242.714828491211	549.2628173828126	-975.165954589844	-241.5180206298829	365.4394226074219	-1014.268310546875	-286.8036499023438	325.5447082519532	-1077.96826171875	-252.3302459716797	317.0244750976563	-1048.150390625	-277.9184875488282	244.0885009765626	-1015.948486328125	-377.8881530761719	123.2437820434571	-1032.65087890625	-342.0965270996094	135.6942596435547	-961.4118652343752	-432.4525146484376	102.7699890136719	-980.4296875000002	-234.0942993164063	44.89834213256837	-974.1212158203127	-225.5558319091797	45.22212600708009	-1024.491821289063	-270.4869689941407	36.45341491699219	-1070.959350585938	-228.3405303955079	821.6028442382815	-789.6385498046877	-193.0840911865235	764.7069091796876	-784.9558105468752	-158.9647521972657	766.6798706054689	-791.533630371094	-222.2543640136719	685.0416259765626	-796.9414672851565	-214.4131927490235	552.1290893554689	-802.319519042969	-220.0760955810547	547.5112915039064	-920.3142089843752	-208.3073272705079	371.4902954101563	-822.0462646484377	-300.1858215332032	311.5061645507813	-781.5446777343752	-255.6074829101563	303.8403320312501	-792.4468383789065	-256.7303161621094	251.0522613525391	-819.7663574218752	-344.5851745605469	144.9309844970703	-783.2308349609377	-316.3165283203126	148.4918365478516	-864.0502929687502	-411.3228454589845	108.6067199707032	-845.5928344726565	-200.8155670166016	68.02354431152345	-842.5825805664065	-199.814193725586	68.94382476806642	-796.1253662109377	-243.5671691894532	53.85371780395509	-752.6877441406251	nan	nan	nan	nan	nan	nan	
1570	7.845	-91.35359954833986	1763.838134765625	-1036.863525390625	-247.7497863769532	1728.009399414063	-1105.78955078125	-247.7469329833985	1711.181518554688	-961.4834594726565	-314.7722778320313	1553.5478515625	-1033.663208007813	-332.3162231445313	1268.123657226563	-1012.012756347656	-175.3642120361328	1514.109130859375	-1048.750122070313	-251.0923309326172	1547.8701171875	-1217.108154296875	-338.2414855957032	1319.6181640625	-1294.383911132813	-293.2807312011719	1296.728759765625	-1291.8203125	-331.4066772460938	1250.921997070313	-1301.694702148438	-326.8156738281251	1192.903564453125	-1302.368530273438	-371.6662902832032	1179.254028320313	-1241.150512695313	-264.4799499511719	907.553405761719	-1245.086303710938	-315.0350646972657	903.3511962890627	-1297.779174804688	-231.7784729003907	838.1219482421877	-1269.774658203125	-221.6191711425782	1539.805297851563	-872.7969970703127	-271.7368164062501	1345.116088867188	-753.7058715820314	-236.3441925048829	1311.862182617188	-760.0644531250001	-277.9826660156251	1279.921264648438	-730.4199218750001	-278.0362854003907	1208.591430664063	-709.6387939453126	-323.5169372558594	1184.2724609375	-769.8514404296877	-193.8836822509766	936.7243652343752	-720.0127563476564	-236.3956604003907	933.1726074218752	-661.3897094726564	-161.2019195556641	865.2617187500002	-680.5451660156251	-181.1418609619141	1057.5693359375	-1112.798217773438	-183.7919158935547	1093.368530273438	-865.0700683593752	-347.6933898925782	1134.815551757813	-993.559753417969	-363.8246154785157	1104.431518554688	-1018.275451660156	-361.7017517089844	1109.615844726563	-961.6447753906252	-239.9696807861329	740.7601318359376	-1141.147216796875	-215.3203430175782	659.9996337890626	-1127.514282226563	-170.193115234375	663.8839721679689	-1103.678466796875	-247.3161621093751	614.7220458984376	-1106.816650390625	-246.9552307128907	552.8507690429689	-1095.97412109375	-242.6176910400391	549.2509155273439	-975.1655273437502	-241.4879913330079	365.4357910156251	-1014.307556152344	-286.8424072265626	325.4925842285157	-1077.959228515625	-252.2927856445313	317.0456848144532	-1048.323364257813	-277.8808898925782	244.1370849609376	-1016.056457519531	-377.9072875976563	123.4146881103516	-1032.628173828125	-342.0109558105469	135.6156616210938	-961.406921386719	-432.4354248046876	102.8055877685547	-980.442810058594	-233.9700622558594	44.91722106933594	-974.165222167969	-225.5874633789063	45.19580459594727	-1024.545532226563	-270.3991699218751	36.40557479858399	-1070.979858398438	-228.8649597167969	821.3719482421877	-789.545593261719	-191.2409057617188	763.4661865234376	-783.7720336914065	-159.6895446777344	766.0101928710939	-791.5931396484377	-223.4567108154297	684.8031616210939	-796.939392089844	-215.9766845703126	551.8942260742189	-802.1617431640627	-221.5341949462891	547.0062255859376	-920.4902954101565	-208.7606048583985	370.8078613281251	-822.1037597656252	-300.4902343750001	310.6168518066407	-781.6149902343752	-255.7821807861329	303.0419616699219	-792.705261230469	-256.5897827148438	250.6233825683594	-819.988952636719	-343.9405517578126	143.2161712646485	-783.5827636718752	-314.8064270019532	147.2459716796875	-864.245056152344	-410.4949645996095	107.2520141601563	-845.922058105469	-199.3995208740235	67.15414428710939	-842.4293212890627	-198.377914428711	67.19783782958986	-796.0767211914065	-242.2333374023438	51.77072143554689	-753.1584472656251	nan	nan	nan	nan	nan	nan	
1571	7.850000000000001	-91.0231399536133	1763.52197265625	-1036.357543945313	-247.3347778320313	1727.996948242188	-1105.253784179688	-247.3921661376954	1711.222290039063	-961.016296386719	-314.2396240234376	1553.4072265625	-1033.23291015625	-332.0920715332032	1268.009033203125	-1011.550537109375	-175.0142669677735	1514.046020507813	-1048.348876953125	-251.0786132812501	1547.96435546875	-1216.609252929688	-339.1144104003907	1320.045043945313	-1294.293334960938	-294.5311584472657	1296.936401367188	-1291.870239257813	-332.6730957031251	1251.503051757813	-1301.721557617188	-328.2349243164063	1193.387573242188	-1302.4453125	-373.0590515136719	1179.84765625	-1241.281982421875	-267.4356384277344	907.6739501953127	-1244.909423828125	-317.4573059082032	903.9530029296877	-1298.18896484375	-234.4553833007813	838.2725830078127	-1269.251098632813	-221.1032257080079	1539.813598632813	-872.2026977539065	-272.6947021484376	1344.962646484375	-753.8392944335939	-237.5459289550782	1311.474243164063	-759.9788818359376	-279.8056945800782	1279.744262695313	-730.8651123046876	-280.1623229980469	1208.292236328125	-710.3870239257814	-325.1975097656251	1184.31884765625	-771.171813964844	-197.3802337646485	936.0723876953127	-720.5735473632814	-240.8393859863282	932.5113525390627	-662.5892944335939	-165.7239837646485	864.3516235351565	-680.7964477539064	-180.9331665039063	1057.164306640625	-1112.712524414063	-183.0452117919922	1093.218872070313	-864.9001464843752	-347.3225708007813	1134.460083007813	-993.176452636719	-363.3641052246094	1104.395385742188	-1017.833129882813	-361.1605529785157	1109.556884765625	-961.1821289062502	-239.8761444091797	740.7642822265626	-1141.0927734375	-215.2307281494141	659.9866333007814	-1127.541748046875	-170.1128997802735	663.9221801757814	-1103.733764648438	-247.2742614746094	614.7306518554689	-1106.765625	-246.826156616211	552.8578491210939	-1095.983764648438	-242.3758697509766	549.4544677734376	-975.4341430664065	-241.4026489257813	365.3954162597657	-1014.384704589844	-286.8926696777344	325.4307250976563	-1077.986083984375	-252.2494049072266	317.0898132324219	-1048.312866210938	-277.8649597167969	244.1085357666016	-1016.172119140625	-377.9982604980469	123.2527542114258	-1032.700805664063	-341.4399108886719	135.7251281738282	-961.2393188476565	-432.4676818847657	102.8011474609375	-980.3928833007815	-234.0904693603516	44.98774719238282	-974.1343994140627	-225.6287841796876	45.14317321777344	-1024.58251953125	-270.4707031250001	36.4560775756836	-1071.047241210938	-229.5429992675782	821.090759277344	-789.4741821289065	-193.5891418457032	763.8404541015626	-784.3605957031252	-160.2586517333985	765.2825317382814	-791.7090454101565	-224.7528381347657	684.6259765625001	-796.8462524414065	-217.4281158447266	551.1401367187501	-802.5173339843752	-222.8467254638672	546.5543212890626	-920.7413330078127	-209.1264648437501	370.3050842285157	-822.178894042969	-300.7106933593751	309.4559020996094	-781.8143310546877	-255.7143859863282	302.3032226562501	-792.5186767578127	-256.3695373535157	249.9667053222657	-820.1068115234377	-342.7717285156251	142.1741027832032	-783.631530761719	-313.5938720703126	145.9724578857422	-864.2766723632815	-409.0619506835939	106.0401992797852	-846.5761718750002	-197.9734191894532	65.88755798339845	-843.1795043945315	-197.4939270019532	66.11389160156251	-795.5996704101565	-241.4513549804688	50.22153091430665	-753.3353881835939	nan	nan	nan	nan	nan	nan	
